%TF.GenerationSoftware,KiCad,Pcbnew,(6.0.10)*%
%TF.CreationDate,2023-02-17T09:14:47-08:00*%
%TF.ProjectId,555 Timer,35353520-5469-46d6-9572-2e6b69636164,rev?*%
%TF.SameCoordinates,Original*%
%TF.FileFunction,Copper,L1,Top*%
%TF.FilePolarity,Positive*%
%FSLAX46Y46*%
G04 Gerber Fmt 4.6, Leading zero omitted, Abs format (unit mm)*
G04 Created by KiCad (PCBNEW (6.0.10)) date 2023-02-17 09:14:47*
%MOMM*%
%LPD*%
G01*
G04 APERTURE LIST*
G04 Aperture macros list*
%AMRoundRect*
0 Rectangle with rounded corners*
0 $1 Rounding radius*
0 $2 $3 $4 $5 $6 $7 $8 $9 X,Y pos of 4 corners*
0 Add a 4 corners polygon primitive as box body*
4,1,4,$2,$3,$4,$5,$6,$7,$8,$9,$2,$3,0*
0 Add four circle primitives for the rounded corners*
1,1,$1+$1,$2,$3*
1,1,$1+$1,$4,$5*
1,1,$1+$1,$6,$7*
1,1,$1+$1,$8,$9*
0 Add four rect primitives between the rounded corners*
20,1,$1+$1,$2,$3,$4,$5,0*
20,1,$1+$1,$4,$5,$6,$7,0*
20,1,$1+$1,$6,$7,$8,$9,0*
20,1,$1+$1,$8,$9,$2,$3,0*%
G04 Aperture macros list end*
%TA.AperFunction,SMDPad,CuDef*%
%ADD10RoundRect,0.250000X-0.537500X-0.425000X0.537500X-0.425000X0.537500X0.425000X-0.537500X0.425000X0*%
%TD*%
%TA.AperFunction,ComponentPad*%
%ADD11R,3.000000X3.000000*%
%TD*%
%TA.AperFunction,ComponentPad*%
%ADD12C,3.000000*%
%TD*%
%TA.AperFunction,SMDPad,CuDef*%
%ADD13RoundRect,0.250000X-0.450000X0.350000X-0.450000X-0.350000X0.450000X-0.350000X0.450000X0.350000X0*%
%TD*%
%TA.AperFunction,SMDPad,CuDef*%
%ADD14RoundRect,0.250001X0.624999X-0.462499X0.624999X0.462499X-0.624999X0.462499X-0.624999X-0.462499X0*%
%TD*%
%TA.AperFunction,SMDPad,CuDef*%
%ADD15RoundRect,0.150000X0.825000X0.150000X-0.825000X0.150000X-0.825000X-0.150000X0.825000X-0.150000X0*%
%TD*%
%TA.AperFunction,SMDPad,CuDef*%
%ADD16R,2.290000X3.000000*%
%TD*%
%TA.AperFunction,SMDPad,CuDef*%
%ADD17RoundRect,0.250000X-0.475000X0.337500X-0.475000X-0.337500X0.475000X-0.337500X0.475000X0.337500X0*%
%TD*%
%TA.AperFunction,ViaPad*%
%ADD18C,0.800000*%
%TD*%
%TA.AperFunction,Conductor*%
%ADD19C,0.250000*%
%TD*%
G04 APERTURE END LIST*
D10*
%TO.P,C1,1*%
%TO.N,/pin 2*%
X134782500Y-109220000D03*
%TO.P,C1,2*%
%TO.N,GND*%
X137657500Y-109220000D03*
%TD*%
D11*
%TO.P,J1,1,Pin_1*%
%TO.N,+9V*%
X147320000Y-81280000D03*
D12*
%TO.P,J1,2,Pin_2*%
%TO.N,GND*%
X152400000Y-81280000D03*
%TD*%
D13*
%TO.P,R4,1*%
%TO.N,/pin 3*%
X166640000Y-100600000D03*
%TO.P,R4,2*%
%TO.N,Net-(D2-Pad2)*%
X166640000Y-102600000D03*
%TD*%
%TO.P,R3,1*%
%TO.N,Net-(LED1-Pad1)*%
X166640000Y-95520000D03*
%TO.P,R3,2*%
%TO.N,/pin 3*%
X166640000Y-97520000D03*
%TD*%
D14*
%TO.P,D2,1,K*%
%TO.N,GND*%
X166152500Y-110707500D03*
%TO.P,D2,2,A*%
%TO.N,Net-(D2-Pad2)*%
X166152500Y-107732500D03*
%TD*%
%TO.P,LED1,1,K*%
%TO.N,Net-(LED1-Pad1)*%
X166840000Y-91327500D03*
%TO.P,LED1,2,A*%
%TO.N,+9V*%
X166840000Y-88352500D03*
%TD*%
D15*
%TO.P,U1,1,GND*%
%TO.N,GND*%
X152335000Y-98592500D03*
%TO.P,U1,2,TR*%
%TO.N,/pin_2*%
X152335000Y-97322500D03*
%TO.P,U1,3,Q*%
%TO.N,/pin 3*%
X152335000Y-96052500D03*
%TO.P,U1,4,R*%
%TO.N,+9V*%
X152335000Y-94782500D03*
%TO.P,U1,5,CV*%
%TO.N,Net-(C2-Pad1)*%
X147385000Y-94782500D03*
%TO.P,U1,6,THR*%
%TO.N,/pin_2*%
X147385000Y-96052500D03*
%TO.P,U1,7,DIS*%
%TO.N,/pin 7*%
X147385000Y-97322500D03*
%TO.P,U1,8,VCC*%
%TO.N,+9V*%
X147385000Y-98592500D03*
D16*
%TO.P,U1,9*%
%TO.N,N/C*%
X149860000Y-96687500D03*
%TD*%
D13*
%TO.P,R1,1*%
%TO.N,+9V*%
X133995000Y-90980000D03*
%TO.P,R1,2*%
%TO.N,/pin 7*%
X133995000Y-92980000D03*
%TD*%
D17*
%TO.P,C2,1*%
%TO.N,Net-(C2-Pad1)*%
X147320000Y-107145000D03*
%TO.P,C2,2*%
%TO.N,GND*%
X147320000Y-109220000D03*
%TD*%
D13*
%TO.P,R2,1*%
%TO.N,/pin 7*%
X133620000Y-101665000D03*
%TO.P,R2,2*%
%TO.N,/pin 2*%
X133620000Y-103665000D03*
%TD*%
D18*
%TO.N,GND*%
X157480000Y-109220000D03*
X160020000Y-83820000D03*
%TO.N,Net-(C2-Pad1)*%
X144780000Y-93980000D03*
X144780000Y-101600000D03*
%TO.N,+9V*%
X147320000Y-101600000D03*
X157480000Y-93980000D03*
%TO.N,/pin_2*%
X152400000Y-91440000D03*
X154940000Y-99060000D03*
%TO.N,/pin 7*%
X137160000Y-96520000D03*
X142240000Y-96520000D03*
%TD*%
D19*
%TO.N,/pin 2*%
X132080000Y-105205000D02*
X133620000Y-103665000D01*
X134782500Y-109220000D02*
X132080000Y-109220000D01*
X132080000Y-109220000D02*
X132080000Y-105205000D01*
%TO.N,GND*%
X164450000Y-110707500D02*
X166152500Y-110707500D01*
X152335000Y-98592500D02*
X152400000Y-98657500D01*
X157480000Y-81280000D02*
X160020000Y-83820000D01*
X157480000Y-109220000D02*
X152400000Y-109220000D01*
X152400000Y-109220000D02*
X147320000Y-109220000D01*
X137657500Y-109220000D02*
X147320000Y-109220000D01*
X152400000Y-98657500D02*
X152400000Y-109220000D01*
X152400000Y-81280000D02*
X157480000Y-81280000D01*
X152335000Y-98592500D02*
X164450000Y-110707500D01*
%TO.N,Net-(C2-Pad1)*%
X147385000Y-94782500D02*
X146582500Y-93980000D01*
X147320000Y-104140000D02*
X147320000Y-107145000D01*
X146582500Y-93980000D02*
X144780000Y-93980000D01*
X144780000Y-101600000D02*
X147320000Y-104140000D01*
%TO.N,Net-(D2-Pad2)*%
X166152500Y-107732500D02*
X166640000Y-107245000D01*
X166640000Y-107245000D02*
X166640000Y-102600000D01*
%TO.N,+9V*%
X147385000Y-98592500D02*
X147320000Y-98657500D01*
X139700000Y-91440000D02*
X139700000Y-99060000D01*
X166840000Y-88352500D02*
X166292500Y-88900000D01*
X152335000Y-94045000D02*
X152335000Y-94782500D01*
X146917500Y-99060000D02*
X147385000Y-98592500D01*
X139240000Y-89360000D02*
X139240000Y-90980000D01*
X139240000Y-90980000D02*
X139700000Y-91440000D01*
X157480000Y-88900000D02*
X152335000Y-94045000D01*
X147320000Y-98657500D02*
X147320000Y-101600000D01*
X133995000Y-90980000D02*
X139240000Y-90980000D01*
X157480000Y-93980000D02*
X154940000Y-91440000D01*
X139700000Y-99060000D02*
X146917500Y-99060000D01*
X147320000Y-81280000D02*
X139240000Y-89360000D01*
X166292500Y-88900000D02*
X157480000Y-88900000D01*
%TO.N,Net-(LED1-Pad1)*%
X166840000Y-91327500D02*
X166640000Y-91527500D01*
X166640000Y-91527500D02*
X166640000Y-95520000D01*
%TO.N,/pin 3*%
X152335000Y-96052500D02*
X159552500Y-96052500D01*
X166640000Y-97520000D02*
X166640000Y-100600000D01*
X159552500Y-96052500D02*
X164100000Y-100600000D01*
X164100000Y-100600000D02*
X166640000Y-100600000D01*
%TO.N,/pin_2*%
X144780000Y-91440000D02*
X152400000Y-91440000D01*
X152335000Y-96742500D02*
X152335000Y-97322500D01*
X144312500Y-96052500D02*
X142240000Y-93980000D01*
X152557500Y-96677500D02*
X152400000Y-96677500D01*
X142240000Y-93980000D02*
X144780000Y-91440000D01*
X152400000Y-96677500D02*
X152335000Y-96742500D01*
X154940000Y-99060000D02*
X152557500Y-96677500D01*
X147385000Y-96052500D02*
X144312500Y-96052500D01*
%TO.N,/pin 7*%
X133995000Y-95895000D02*
X133995000Y-92980000D01*
X143042500Y-97322500D02*
X142240000Y-96520000D01*
X134620000Y-96520000D02*
X133995000Y-95895000D01*
X133620000Y-101665000D02*
X133995000Y-101290000D01*
X137160000Y-96520000D02*
X134620000Y-96520000D01*
X133995000Y-101290000D02*
X133995000Y-95895000D01*
X147385000Y-97322500D02*
X143042500Y-97322500D01*
%TD*%
M02*
